<svg width="389" height="166" viewBox="0 0 389 166" fill="none" xmlns="http://www.w3.org/2000/svg">
<path d="M143.58 58C145.44 58 147.05 58.31 148.41 58.93C149.79 59.55 150.85 60.43 151.59 61.57C152.33 62.71 152.7 64.06 152.7 65.62C152.7 67.16 152.33 68.51 151.59 69.67C150.85 70.81 149.79 71.69 148.41 72.31C147.05 72.91 145.44 73.21 143.58 73.21H139.35V79H134.49V58H143.58ZM143.31 69.25C144.77 69.25 145.88 68.94 146.64 68.32C147.4 67.68 147.78 66.78 147.78 65.62C147.78 64.44 147.4 63.54 146.64 62.92C145.88 62.28 144.77 61.96 143.31 61.96H139.35V69.25H143.31ZM169.843 79L165.793 73.15H165.553H161.323V79H156.463V58H165.553C167.413 58 169.023 58.31 170.383 58.93C171.763 59.55 172.823 60.43 173.563 61.57C174.303 62.71 174.673 64.06 174.673 65.62C174.673 67.18 174.293 68.53 173.533 69.67C172.793 70.79 171.733 71.65 170.353 72.25L175.063 79H169.843ZM169.753 65.62C169.753 64.44 169.373 63.54 168.613 62.92C167.853 62.28 166.743 61.96 165.283 61.96H161.323V69.28H165.283C166.743 69.28 167.853 68.96 168.613 68.32C169.373 67.68 169.753 66.78 169.753 65.62ZM188.693 79.36C186.513 79.36 184.543 78.89 182.783 77.95C181.043 77.01 179.673 75.72 178.673 74.08C177.693 72.42 177.203 70.56 177.203 68.5C177.203 66.44 177.693 64.59 178.673 62.95C179.673 61.29 181.043 59.99 182.783 59.05C184.543 58.11 186.513 57.64 188.693 57.64C190.873 57.64 192.833 58.11 194.573 59.05C196.313 59.99 197.683 61.29 198.683 62.95C199.683 64.59 200.183 66.44 200.183 68.5C200.183 70.56 199.683 72.42 198.683 74.08C197.683 75.72 196.313 77.01 194.573 77.95C192.833 78.89 190.873 79.36 188.693 79.36ZM188.693 75.22C189.933 75.22 191.053 74.94 192.053 74.38C193.053 73.8 193.833 73 194.393 71.98C194.973 70.96 195.263 69.8 195.263 68.5C195.263 67.2 194.973 66.04 194.393 65.02C193.833 64 193.053 63.21 192.053 62.65C191.053 62.07 189.933 61.78 188.693 61.78C187.453 61.78 186.333 62.07 185.333 62.65C184.333 63.21 183.543 64 182.963 65.02C182.403 66.04 182.123 67.2 182.123 68.5C182.123 69.8 182.403 70.96 182.963 71.98C183.543 73 184.333 73.8 185.333 74.38C186.333 74.94 187.453 75.22 188.693 75.22ZM207.706 79.36C206.286 79.36 204.976 79.1 203.776 78.58C202.596 78.04 201.626 77.28 200.866 76.3L203.566 73.06C204.706 74.6 206.006 75.37 207.466 75.37C209.446 75.37 210.436 74.21 210.436 71.89V61.9H203.056V58H215.266V71.62C215.266 74.2 214.626 76.14 213.346 77.44C212.066 78.72 210.186 79.36 207.706 79.36ZM236.326 75.1V79H220.066V58H235.936V61.9H224.896V66.46H234.646V70.24H224.896V75.1H236.326ZM250.243 79.36C248.103 79.36 246.163 78.9 244.423 77.98C242.703 77.04 241.343 75.75 240.343 74.11C239.363 72.45 238.873 70.58 238.873 68.5C238.873 66.42 239.363 64.56 240.343 62.92C241.343 61.26 242.703 59.97 244.423 59.05C246.163 58.11 248.113 57.64 250.273 57.64C252.093 57.64 253.733 57.96 255.193 58.6C256.673 59.24 257.913 60.16 258.913 61.36L255.793 64.24C254.373 62.6 252.613 61.78 250.513 61.78C249.213 61.78 248.053 62.07 247.033 62.65C246.013 63.21 245.213 64 244.633 65.02C244.073 66.04 243.793 67.2 243.793 68.5C243.793 69.8 244.073 70.96 244.633 71.98C245.213 73 246.013 73.8 247.033 74.38C248.053 74.94 249.213 75.22 250.513 75.22C252.613 75.22 254.373 74.39 255.793 72.73L258.913 75.61C257.913 76.83 256.673 77.76 255.193 78.4C253.713 79.04 252.063 79.36 250.243 79.36ZM266.545 61.96H259.825V58H278.125V61.96H271.405V79H266.545V61.96Z" fill="#293132"/>
<path d="M168.6 111L168.57 98.4L162.39 108.78H160.2L154.05 98.67V111H149.49V90H153.51L161.37 103.05L169.11 90H173.1L173.16 111H168.6ZM191.972 106.5H182.222L180.362 111H175.382L184.742 90H189.542L198.932 111H193.832L191.972 106.5ZM190.442 102.81L187.112 94.77L183.782 102.81H190.442ZM220.371 90V111H216.381L205.911 98.25V111H201.111V90H205.131L215.571 102.75V90H220.371ZM239.17 106.5H229.42L227.56 111H222.58L231.94 90H236.74L246.13 111H241.03L239.17 106.5ZM237.64 102.81L234.31 94.77L230.98 102.81H237.64ZM262.205 100.17H266.645V108.69C265.505 109.55 264.185 110.21 262.685 110.67C261.185 111.13 259.675 111.36 258.155 111.36C255.975 111.36 254.015 110.9 252.275 109.98C250.535 109.04 249.165 107.75 248.165 106.11C247.185 104.45 246.695 102.58 246.695 100.5C246.695 98.42 247.185 96.56 248.165 94.92C249.165 93.26 250.545 91.97 252.305 91.05C254.065 90.11 256.045 89.64 258.245 89.64C260.085 89.64 261.755 89.95 263.255 90.57C264.755 91.19 266.015 92.09 267.035 93.27L263.915 96.15C262.415 94.57 260.605 93.78 258.485 93.78C257.145 93.78 255.955 94.06 254.915 94.62C253.875 95.18 253.065 95.97 252.485 96.99C251.905 98.01 251.615 99.18 251.615 100.5C251.615 101.8 251.905 102.96 252.485 103.98C253.065 105 253.865 105.8 254.885 106.38C255.925 106.94 257.105 107.22 258.425 107.22C259.825 107.22 261.085 106.92 262.205 106.32V100.17ZM287.42 107.1V111H271.16V90H287.03V93.9H275.99V98.46H285.74V102.24H275.99V107.1H287.42ZM310.397 111L310.367 98.4L304.187 108.78H301.997L295.847 98.67V111H291.287V90H295.307L303.167 103.05L310.907 90H314.897L314.957 111H310.397ZM336.199 107.1V111H319.939V90H335.809V93.9H324.769V98.46H334.519V102.24H324.769V107.1H336.199ZM359.326 90V111H355.336L344.866 98.25V111H340.066V90H344.086L354.526 102.75V90H359.326ZM368.645 93.96H361.925V90H380.225V93.96H373.505V111H368.645V93.96Z" fill="#293132"/>
<path d="M65.9307 52.9967V68.0377H45.9159" stroke="#FFE32C" stroke-width="5" stroke-miterlimit="10" stroke-linecap="round"/>
<path d="M97.9912 60.106C96.624 54.5834 93.8533 49.5077 89.9478 45.3707C86.0422 41.2337 81.1342 38.1757 75.6994 36.4931C70.2647 34.8105 64.4874 34.5603 58.9275 35.7669C53.3676 36.9734 48.2137 39.5957 43.9652 43.3796C39.7166 47.1636 36.5176 51.9808 34.6781 57.3645C32.8386 62.7483 32.421 68.5159 33.4658 74.1084C34.5106 79.701 36.9824 84.9288 40.6415 89.2853C44.3006 93.6417 49.0231 96.9791 54.3512 98.9739" stroke="#FFE32C" stroke-width="5" stroke-miterlimit="10" stroke-linecap="round"/>
<path d="M109.359 86.4392C103.119 86.4392 98.0603 81.3805 98.0603 75.1403C98.0603 68.9001 103.119 63.8414 109.359 63.8414C115.599 63.8414 120.658 68.9001 120.658 75.1403C120.658 81.3805 115.599 86.4392 109.359 86.4392Z" stroke="#FFE32C" stroke-width="5" stroke-miterlimit="10" stroke-linecap="round"/>
<path d="M113.209 86.4384H105.506C100.535 86.4395 95.7671 88.4153 92.252 91.9312C88.7369 95.4471 86.7622 100.215 86.7622 105.187V115.304C86.7622 116.124 87.088 116.91 87.668 117.49C88.2479 118.07 89.0345 118.396 89.8546 118.396H128.865C129.685 118.396 130.471 118.07 131.051 117.49C131.631 116.91 131.957 116.124 131.957 115.304V105.183C131.956 100.211 129.98 95.4433 126.464 91.9282C122.948 88.4131 118.18 86.4384 113.209 86.4384V86.4384Z" stroke="#FFE32C" stroke-width="5" stroke-miterlimit="10" stroke-linecap="round"/>
<path d="M79.6812 82.7471C74.7595 82.7471 70.7696 78.7572 70.7696 73.8355C70.7696 68.9138 74.7595 64.924 79.6812 64.924C84.6029 64.924 88.5928 68.9138 88.5928 73.8355C88.5928 78.7572 84.6029 82.7471 79.6812 82.7471Z" stroke="#FFE32C" stroke-width="5" stroke-miterlimit="10" stroke-linecap="round"/>
<path d="M80.5748 107.957H64.7962C64.0169 107.954 63.2703 107.643 62.7198 107.091C62.1694 106.539 61.8597 105.792 61.8586 105.012V100.574C61.8524 97.3275 62.7345 94.1414 64.4092 91.3605C66.0839 88.5796 68.4875 86.3098 71.3596 84.797C74.2318 83.2841 77.4631 82.5858 80.7037 82.7777C83.9442 82.9696 87.0706 84.0443 89.7441 85.8855" stroke="#FFE32C" stroke-width="5" stroke-miterlimit="10" stroke-linecap="round"/>
</svg>
